<?xml version="1.0" encoding="UTF-8"?> <svg xmlns="http://www.w3.org/2000/svg" width="35" height="46" viewBox="0 0 35 46" fill="none"><path fill-rule="evenodd" clip-rule="evenodd" d="M25.6404 9.61658C25.4863 9.77063 25.2774 9.85717 25.0596 9.85717H10.2738C10.056 9.85717 9.84705 9.77063 9.693 9.61658C9.53895 9.46253 9.45241 9.2536 9.45241 9.03574V5.75003C9.45241 5.53217 9.53895 5.32324 9.693 5.16919C9.84705 5.01514 10.056 4.9286 10.2738 4.9286H11.0706C11.6764 4.91968 12.2633 4.71642 12.7448 4.34877C13.2263 3.98113 13.577 3.46853 13.7452 2.88653C14.0028 2.04842 14.5231 1.31537 15.2292 0.795607C15.9353 0.275844 16.7899 -0.00307778 17.6667 2.56192e-05C18.5483 0.0115919 19.4038 0.301366 20.111 0.827988C20.8182 1.35461 21.3409 2.09117 21.6046 2.93253C21.7621 3.50228 22.1009 4.00524 22.5697 4.36537C23.0384 4.7255 23.6117 4.92321 24.2028 4.9286H25.0596C25.2774 4.9286 25.4863 5.01514 25.6404 5.16919C25.7944 5.32324 25.881 5.53217 25.881 5.75003V9.03574C25.881 9.2536 25.7944 9.46253 25.6404 9.61658ZM19.0358 2.05819C18.6305 1.78741 18.1541 1.64288 17.6667 1.64288C17.0131 1.64288 16.3863 1.90251 15.9242 2.36466C15.462 2.8268 15.2024 3.4536 15.2024 4.10717C15.2024 4.59456 15.3469 5.071 15.6177 5.47625C15.8885 5.8815 16.2734 6.19736 16.7237 6.38387C17.1739 6.57039 17.6694 6.61919 18.1475 6.5241C18.6255 6.42902 19.0646 6.19432 19.4092 5.84968C19.7538 5.50504 19.9885 5.06595 20.0836 4.58793C20.1787 4.1099 20.1299 3.61442 19.9434 3.16413C19.7569 2.71384 19.441 2.32897 19.0358 2.05819ZM27.5239 6.57145H33.2739C33.7096 6.57145 34.1275 6.74453 34.4356 7.05263C34.7437 7.36072 34.9167 7.77859 34.9167 8.2143V44.3572C34.9167 44.7929 34.7437 45.2107 34.4356 45.5188C34.1275 45.8269 33.7096 46 33.2739 46H2.05961C1.62389 46 1.20603 45.8269 0.89793 45.5188C0.589835 45.2107 0.416748 44.7929 0.416748 44.3572V8.2143C0.416748 7.77859 0.589835 7.36072 0.89793 7.05263C1.20603 6.74453 1.62389 6.57145 2.05961 6.57145H7.80961V8.2143H3.70246C3.26675 8.2143 2.84888 8.38739 2.54079 8.69549C2.23269 9.00358 2.05961 9.42145 2.05961 9.85716V42.7143C2.05961 43.15 2.23269 43.5679 2.54079 43.876C2.84888 44.1841 3.26675 44.3572 3.70246 44.3572H31.631C32.0667 44.3572 32.4846 44.1841 32.7927 43.876C33.1008 43.5679 33.2739 43.15 33.2739 42.7143V9.85716C33.2739 9.42145 33.1008 9.00358 32.7927 8.69549C32.4846 8.38739 32.0667 8.2143 31.631 8.2143H27.5239V6.57145ZM25.4281 18.0855C25.4856 18.0974 25.5402 18.1205 25.5886 18.1536L26.5012 18.7886C26.6014 18.8591 26.6709 18.9652 26.6955 19.0852C26.7201 19.2052 26.6979 19.33 26.6335 19.4342L17.293 32.4128C17.2103 32.5342 17.1019 32.6359 16.9754 32.7106C16.8489 32.7854 16.7076 32.8313 16.5614 32.8453C16.4151 32.8593 16.2676 32.8408 16.1293 32.7914C15.991 32.7419 15.8653 32.6626 15.7611 32.559L12.026 28.7657C11.9556 28.6931 11.9162 28.5961 11.9162 28.495C11.9162 28.3939 11.9556 28.2968 12.026 28.2243L12.946 27.2928C13.0119 27.2284 13.1003 27.1923 13.1925 27.1923C13.2846 27.1923 13.373 27.2284 13.4389 27.2928L15.6198 29.5107C15.7042 29.5942 15.8055 29.6587 15.9169 29.6998C16.0283 29.7408 16.1472 29.7575 16.2656 29.7487C16.384 29.7399 16.4992 29.7058 16.6033 29.6488C16.7074 29.5917 16.7981 29.513 16.8692 29.4179L24.9685 18.2727C25.0012 18.224 25.0433 18.1823 25.0923 18.15C25.1413 18.1176 25.1961 18.0952 25.2538 18.0842C25.3114 18.0731 25.3707 18.0735 25.4281 18.0855ZM25.0596 11.5H10.2738C9.76598 11.4979 9.27118 11.3389 8.85712 11.0448C8.44306 10.7507 8.12998 10.3359 7.96069 9.85711H3.70241V42.7143H31.631V9.85711H27.3727C27.2034 10.3359 26.8903 10.7507 26.4763 11.0448C26.0622 11.3389 25.5674 11.4979 25.0596 11.5ZM28.3453 35.3214C28.3453 35.975 28.0856 36.6018 27.6235 37.0639C27.1614 37.5261 26.5345 37.7857 25.881 37.7857H9.45241C8.79884 37.7857 8.17204 37.5261 7.7099 37.0639C7.24775 36.6018 6.98812 35.975 6.98812 35.3214V18.8928C6.98812 18.2393 7.24775 17.6125 7.7099 17.1503C8.17204 16.6882 8.79884 16.4285 9.45241 16.4285H19.3096C19.5274 16.4285 19.7363 16.5151 19.8904 16.6691C20.0444 16.8232 20.131 17.0321 20.131 17.25C20.131 17.4678 20.0444 17.6768 19.8904 17.8308C19.7363 17.9848 19.5274 18.0714 19.3096 18.0714H9.45241C9.23455 18.0714 9.02562 18.1579 8.87157 18.312C8.71752 18.466 8.63098 18.675 8.63098 18.8928V35.3214C8.63098 35.5392 8.71752 35.7482 8.87157 35.9022C9.02562 36.0563 9.23455 36.1428 9.45241 36.1428H25.881C26.0988 36.1428 26.3078 36.0563 26.4618 35.9022C26.6159 35.7482 26.7024 35.5392 26.7024 35.3214V25.4643C26.7024 25.2464 26.789 25.0375 26.943 24.8834C27.097 24.7294 27.306 24.6428 27.5238 24.6428C27.7417 24.6428 27.9506 24.7294 28.1047 24.8834C28.2587 25.0375 28.3453 25.2464 28.3453 25.4643V35.3214ZM27.9806 20.3714L18.6393 33.35C18.4169 33.6671 18.1279 33.9318 17.7925 34.1254C17.4571 34.3191 17.0834 34.4371 16.6976 34.4711C16.3118 34.5052 15.9232 34.4545 15.5591 34.3225C15.1949 34.1906 14.8641 33.9806 14.5896 33.7073L10.8546 29.9139C10.4841 29.5332 10.2768 29.0229 10.2768 28.4916C10.2768 27.9604 10.4841 27.4501 10.8546 27.0693L11.7721 26.137C12.152 25.768 12.6607 25.5616 13.1903 25.5616C13.7199 25.5616 14.2286 25.768 14.6085 26.137L16.1101 27.6632L23.6237 17.3321C23.9426 16.8813 24.4258 16.5738 24.9693 16.4759C25.5128 16.378 26.0729 16.4976 26.5291 16.8089L27.4417 17.4455C27.8944 17.7673 28.2038 18.2529 28.3044 18.7992C28.405 19.3454 28.2888 19.9094 27.9806 20.3714Z" fill="#235387"></path></svg> 