<?xml version="1.0" encoding="UTF-8"?> <svg xmlns="http://www.w3.org/2000/svg" width="47" height="48" viewBox="0 0 47 48" fill="none"><path d="M37.4329 1.17166L40.032 0.559267C40.7156 0.352762 41.3992 0.694564 41.3992 1.44938V11.6465C41.3992 12.1948 41.2639 12.8072 40.5803 12.9496L37.4329 1.17166ZM0.753347 25.6746L6.57109 15.684C7.04819 14.7939 8.4154 14.7939 8.9637 15.684L14.7102 25.6746H0.753347ZM-0.00146484 26.9065H15.4651C15.1945 29.4415 13.0012 31.357 10.4662 31.357H4.99738C2.46235 31.3499 0.340337 29.4344 -0.00146484 26.9065ZM45.921 25.6746H31.957L37.7747 15.684C38.2518 14.7939 39.619 14.7939 40.1032 15.684L45.921 25.6746ZM46.6687 26.9065C46.3981 29.4415 44.2049 31.357 41.6698 31.357H36.1939C33.6589 31.357 31.4728 29.4415 31.195 26.9065H46.6687ZM21.9664 26.0164C22.1729 25.9451 22.3082 25.8098 22.5147 25.6746C22.8565 25.2615 23.2695 24.9197 23.6754 24.5139L24.5655 25.404L26.3457 40.5999H20.2574L21.9664 26.0164ZM29.1514 44.0108H17.5159C16.9035 44.0108 16.4192 43.5337 16.4192 42.9142C16.4192 42.3018 16.8963 41.8176 17.5159 41.8176H29.1514C29.7637 41.8176 30.248 42.2947 30.248 42.9142C30.248 43.5337 29.7709 44.0108 29.1514 44.0108ZM14.2331 47.5C13.6207 47.5 13.1365 46.9517 13.1365 46.3393C13.1365 45.7269 13.6136 45.2427 14.2331 45.2427C20.3215 45.2427 26.3457 45.2427 32.4341 45.2427C33.0465 45.2427 33.5948 45.7198 33.5948 46.3393C33.5948 46.9517 33.0465 47.5 32.4341 47.5H14.2331ZM25.8686 7.74422C24.5014 8.97613 23.1342 10.2792 21.7599 11.5112C21.4893 11.7177 21.2116 11.7817 20.941 11.7817C20.2574 11.7817 19.7803 11.2334 19.7803 10.5498C19.7803 10.2792 19.9156 10.0015 20.1933 9.79503L24.302 6.02809C25.4627 5.00269 31.487 4.52559 34.0861 4.18379L36.2081 11.9883C35.2468 13.0137 34.3638 14.1815 33.5378 15.3422L26.4169 8.90492L26.6875 8.63433C27.307 8.08602 26.481 7.19591 25.8686 7.74422ZM21.2116 22.5912C22.1729 21.7723 23.3336 23.0683 22.5147 23.9584L21.6246 24.7773C20.7345 25.6674 19.5026 24.3002 20.3215 23.4101L21.2116 22.5912ZM18.1995 21.224L19.5026 19.9921C20.3927 19.102 21.6958 20.5404 20.8057 21.3593C20.3286 21.7723 19.9156 22.1141 19.5026 22.5912C18.5484 23.4172 17.3165 22.0429 18.1995 21.224ZM16.1487 17.2577L15.2585 18.1478C14.3684 19.0379 13.0653 17.7348 13.9554 16.8447L14.9167 15.8834C15.7428 15.0645 17.0388 16.3676 16.1487 17.2577ZM17.2453 20.4692C16.4264 21.0816 15.3298 19.9921 15.9422 19.1661C16.4905 18.7531 17.0388 18.0695 17.5871 17.5924C18.4772 16.7023 19.7803 18.0695 18.8902 18.8955L17.2453 20.4692ZM12.5241 4.18379C14.5109 4.45438 21.0763 4.9386 22.4506 6.0993L19.3744 8.83371C18.6908 9.58852 18.6196 10.3362 18.6196 10.4786C18.5484 11.7817 19.5809 12.9424 20.8769 13.0137C21.4893 13.0137 22.0376 12.8072 22.5859 12.4013C23.5472 11.5112 24.5014 10.621 25.5268 9.73094L32.8471 16.3676C33.7372 17.1865 32.5053 18.5608 31.6152 17.7348L28.8095 15.1998C28.1972 14.7227 27.4423 15.6128 27.9906 16.0899L30.7963 18.6249C31.8929 19.6503 30.3833 20.8181 29.6997 20.1274L26.6234 17.393C26.0751 16.8447 25.2562 17.7348 25.8686 18.2831L28.8808 20.9534C29.8421 22.05 28.539 23.1466 27.6488 22.3206L24.4302 19.515C23.8819 18.9667 23.063 19.8568 23.6754 20.4051L26.8228 23.2819C27.7129 23.8943 26.5522 25.5393 25.5909 24.6491L24.0172 23.2107C23.946 22.1853 23.1983 21.3664 22.237 21.1599C22.5076 19.928 21.6246 18.6961 20.3927 18.5608C20.5992 16.9871 19.0896 15.684 17.6583 16.1682C17.3165 14.4592 15.401 13.975 14.0338 15.0716L13.3502 15.7552C12.5313 14.388 11.5059 13.0849 10.4733 11.9242L12.5241 4.18379ZM9.17021 1.17166L6.02279 12.9424C5.41039 12.8072 5.20389 12.1876 5.20389 11.6393V1.44938C5.20389 0.694564 5.88749 0.352762 6.6423 0.559267L9.17021 1.17166ZM11.3563 1.71997C11.6269 1.79118 11.7693 2.06177 11.7693 2.47478L8.89249 13.149C8.7572 13.4908 8.47948 13.6261 8.13768 13.562L7.17637 13.2914L10.3238 1.44938L11.3563 1.71997ZM35.3109 1.71997L36.2722 1.44938L39.4196 13.2914L38.4583 13.562C38.1877 13.6332 37.8459 13.4908 37.7747 13.149L34.8979 2.47478C34.8338 2.06177 35.0403 1.79118 35.3109 1.71997Z" fill="#235387"></path></svg> 