<?xml version="1.0" encoding="UTF-8"?>
<!DOCTYPE svg PUBLIC "-//W3C//DTD SVG 1.1//EN" "http://www.w3.org/Graphics/SVG/1.1/DTD/svg11.dtd">
<!-- Creator: CorelDRAW 2020 (64-Bit) -->
<svg xmlns="http://www.w3.org/2000/svg" xml:space="preserve" width="80mm" height="19mm" version="1.1" style="shape-rendering:geometricPrecision; text-rendering:geometricPrecision; image-rendering:optimizeQuality; fill-rule:evenodd; clip-rule:evenodd"
viewBox="0 0 8000 1900"
 xmlns:xlink="http://www.w3.org/1999/xlink"
 xmlns:xodm="http://www.corel.com/coreldraw/odm/2003">
 <defs>
  <style type="text/css">
   <![CDATA[
    .str0 {stroke:#124070;stroke-width:70.56;stroke-miterlimit:22.9256}
    .str1 {stroke:#124070;stroke-width:7.62;stroke-miterlimit:22.9256}
    .fil2 {fill:none;fill-rule:nonzero}
    .fil0 {fill:#FEFEFE;fill-rule:nonzero}
    .fil1 {fill:#124070;fill-rule:nonzero}
   ]]>
  </style>
 </defs>
 <g id="Слой_x0020_1">
  <metadata id="CorelCorpID_0Corel-Layer"/>
  <path class="fil0 str0" d="M7536.74 1803l-6985.78 0c-155.33,0 -281.29,-89.56 -281.29,-200l0 -1213.05c0,-110.43 125.96,-199.99 281.29,-199.99l6985.78 -0.01c155.32,0.01 281.28,89.57 281.28,200.01l0.01 1213.04c-0.01,110.44 -125.97,200 -281.3,200l0.01 0z"/>
  <path class="fil1" d="M1231.23 990.52c0,58.99 -9.88,110.49 -29.78,154.52 -19.75,44.03 -47.83,77.61 -84.24,100.75 -36.41,23.15 -78.88,34.72 -127.42,34.72 -47.42,0 -89.33,-11.72 -126.02,-35 -36.69,-23.28 -65.19,-56.44 -85.37,-99.62 -20.32,-43.18 -30.62,-93.14 -31.19,-150.01l0 -43.46c0,-57.85 10.02,-109.08 30.2,-153.53 20.04,-44.31 48.54,-78.31 85.38,-101.88 36.68,-23.57 78.88,-35.42 126.29,-35.42 48.12,0 90.73,11.71 127.42,35 36.83,23.28 65.2,57.01 84.95,101.31 19.9,44.31 29.78,95.82 29.78,154.52l0 38.1zm-78.88 -38.94c0,-71.27 -14.4,-126.02 -43.04,-164.12 -28.65,-38.24 -68.72,-57.29 -120.23,-57.29 -50.24,0 -89.75,19.05 -118.53,57.29 -28.79,38.1 -43.61,91.02 -44.45,158.75l0 44.31c0,69.15 14.53,123.47 43.6,162.99 29.07,39.51 69.14,59.26 120.09,59.26 51.36,0 91.01,-18.62 119.09,-56.02 28.09,-37.25 42.62,-90.73 43.47,-160.44l0 -44.73z"/>
  <path id="1" class="fil1" d="M1517.55 1217.85c27.37,0 51.22,-8.18 71.54,-24.69 20.46,-16.51 31.75,-37.11 33.87,-61.95l72.39 0c-1.41,25.68 -10.16,50.1 -26.39,73.24 -16.37,23.14 -38.1,41.63 -65.19,55.45 -27.1,13.69 -55.88,20.61 -86.22,20.61 -60.82,0 -109.36,-20.32 -145.35,-60.96 -35.84,-40.64 -53.9,-96.38 -53.9,-166.94l0 -12.84c0,-43.46 8.04,-82.27 23.99,-116.13 15.94,-33.87 38.94,-60.26 68.86,-79.03 29.92,-18.77 65.19,-28.08 105.97,-28.08 50.24,0 91.87,14.96 125.17,45.02 33.16,30.05 50.8,69.14 53.06,116.98l-72.39 0c-2.12,-28.93 -13.13,-52.78 -32.88,-71.4 -19.62,-18.63 -44.03,-27.94 -72.96,-27.94 -38.8,0 -68.86,13.97 -90.31,41.91 -21.31,28.08 -32.03,68.43 -32.03,121.49l0 14.4c0,51.5 10.58,91.3 31.89,119.09 21.17,27.8 51.51,41.77 90.88,41.77z"/>
  <polygon id="2" class="fil1" points="2114.02,886.81 1963.88,886.81 1963.88,1272.04 1887.4,1272.04 1887.4,886.81 1740.22,886.81 1740.22,825 2114.02,825 "/>
  <path id="3" class="fil1" d="M2457.91 1272.04c-4.37,-8.75 -7.9,-24.41 -10.72,-46.99 -35.56,36.97 -78.04,55.46 -127.29,55.46 -44.16,0 -80.29,-12.42 -108.51,-37.4 -28.22,-24.97 -42.33,-56.58 -42.33,-94.82 0,-46.57 17.63,-82.84 53.05,-108.52 35.42,-25.82 85.24,-38.66 149.44,-38.66l74.37 0 0 -35.14c0,-26.67 -7.91,-47.98 -23.85,-63.92 -16.09,-15.81 -39.65,-23.71 -70.7,-23.71 -27.37,0 -50.23,6.91 -68.72,20.6 -18.49,13.83 -27.66,30.48 -27.66,49.95l-76.9 0c0,-22.29 7.9,-43.88 23.7,-64.77 15.95,-20.74 37.4,-37.25 64.63,-49.39 27.1,-12.13 56.87,-18.2 89.47,-18.2 51.5,0 91.86,12.84 121.07,38.67 29.21,25.68 44.45,61.24 45.44,106.39l0 205.89c0,41.06 5.36,73.66 15.8,97.93l0 6.63 -80.29 0zm-126.86 -56.73c23.99,0 46.71,-6.21 68.16,-18.76 21.59,-12.42 37.11,-28.79 46.71,-48.69l0 -92.57 -59.83 0c-93.7,0 -140.55,27.66 -140.55,82.98 0,24.13 7.9,43.04 23.85,56.58 16.08,13.69 36.54,20.46 61.66,20.46z"/>
  <path id="4" class="fil1" d="M2649.26 1272.04l0 -447.04 174.41 0c59.55,0 105.27,10.44 137.16,31.18 31.75,20.75 47.7,51.23 47.7,91.44 0,20.75 -6.21,39.37 -18.63,56.03 -12.41,16.65 -30.76,29.35 -54.89,38.24 26.95,6.35 48.68,18.62 65.05,37.11 16.37,18.48 24.56,40.5 24.56,66.18 0,41.06 -15.1,72.39 -45.3,94.26 -30.06,21.73 -72.81,32.6 -127.85,32.6l-202.21 0zm76.48 -196.43l0 134.62 126.58 0c31.89,0 55.88,-5.92 71.68,-17.78 15.81,-11.85 23.71,-28.5 23.71,-49.95 0,-44.59 -32.74,-66.89 -98.35,-66.89l-123.62 0zm0 -60.96l98.78 0c71.69,0 107.53,-21.02 107.53,-62.93 0,-41.91 -33.87,-63.5 -101.74,-64.91l-104.57 0 0 127.84z"/>
  <polygon id="5" class="fil1" points="3415.5,825 3491.98,825 3491.98,1272.04 3415.5,1272.04 3415.5,946.07 3209.19,1272.04 3132.71,1272.04 3132.71,825 3209.19,825 3209.19,1151.39 "/>
  <polygon id="6" class="fil1" points="3947.2,886.81 3797.06,886.81 3797.06,1272.04 3720.58,1272.04 3720.58,886.81 3573.4,886.81 3573.4,825 3947.2,825 "/>
  <path id="7" class="fil1" d="M4105.1 979.09l116.14 0c50.8,0.57 90.87,13.83 120.37,39.65 29.49,25.97 44.16,60.96 44.16,105.41 0,44.6 -15.09,80.44 -45.43,107.39 -30.34,26.95 -71.12,40.5 -122.35,40.5l-189.37 0 0 -447.04 76.48 0 0 154.09zm0 62.66l0 167.64 113.74 0c28.65,0 50.8,-7.34 66.46,-22.02 15.81,-14.67 23.71,-34.85 23.71,-60.39 0,-24.7 -7.76,-44.88 -23,-60.68 -15.38,-15.81 -36.69,-23.99 -64.35,-24.55l-116.56 0z"/>
  <path id="8" class="fil1" d="M4936.95 946.64c0,-20.89 -8.04,-37.54 -23.98,-49.82 -15.95,-12.27 -37.96,-18.48 -65.76,-18.48 -26.95,0 -49.53,7.05 -67.59,21.17 -18.07,14.11 -27.1,30.62 -27.1,49.67l-76.06 0c0,-38.81 16.23,-70.7 48.83,-95.39 32.45,-24.84 73.09,-37.26 121.92,-37.26 52.35,0 93.13,11.29 122.34,33.73 29.21,22.58 43.89,54.61 43.89,96.24 0,20.17 -6.07,38.66 -18.21,55.59 -12.13,16.8 -29.35,30.2 -51.64,40.08 52.07,17.64 78.03,52.35 78.03,104.14 0,40.92 -15.8,73.52 -47.55,97.37 -31.61,23.99 -73.95,35.98 -126.86,35.98 -51.51,0 -93.98,-12.56 -127.57,-37.82 -33.44,-25.26 -50.23,-59.41 -50.23,-102.3l76.06 0c0,21.73 9.73,40.35 29.21,55.88 19.47,15.52 43.6,23.28 72.53,23.28 29.21,0 52.77,-6.77 70.69,-20.18 17.93,-13.4 26.96,-30.76 26.96,-52.21 0,-24.84 -7.62,-42.76 -22.58,-53.62 -15.1,-10.87 -38.38,-16.23 -70.13,-16.23l-76.49 0 0 -65.19 83.12 0c52.07,-1.42 78.17,-22.86 78.17,-64.63z"/>
  <path id="9" class="fil1" d="M5396.98 1272.04c-4.37,-8.75 -7.9,-24.41 -10.72,-46.99 -35.56,36.97 -78.04,55.46 -127.29,55.46 -44.16,0 -80.29,-12.42 -108.51,-37.4 -28.22,-24.97 -42.33,-56.58 -42.33,-94.82 0,-46.57 17.63,-82.84 53.05,-108.52 35.42,-25.82 85.24,-38.66 149.44,-38.66l74.37 0 0 -35.14c0,-26.67 -7.91,-47.98 -23.85,-63.92 -16.09,-15.81 -39.65,-23.71 -70.7,-23.71 -27.37,0 -50.23,6.91 -68.72,20.6 -18.49,13.83 -27.66,30.48 -27.66,49.95l-76.9 0c0,-22.29 7.9,-43.88 23.7,-64.77 15.95,-20.74 37.4,-37.25 64.63,-49.39 27.1,-12.13 56.87,-18.2 89.47,-18.2 51.5,0 91.86,12.84 121.07,38.67 29.21,25.68 44.45,61.24 45.44,106.39l0 205.89c0,41.06 5.36,73.66 15.8,97.93l0 6.63 -80.29 0zm-126.86 -56.73c23.99,0 46.71,-6.21 68.16,-18.76 21.59,-12.42 37.11,-28.79 46.71,-48.69l0 -92.57 -59.83 0c-93.7,0 -140.55,27.66 -140.55,82.98 0,24.13 7.9,43.04 23.85,56.58 16.08,13.69 36.54,20.46 61.66,20.46z"/>
  <path id="10" class="fil1" d="M5923.47 825l0 447.04 -76.91 0 0 -174.41 -115.42 0 -105.42 174.41 -82.69 0 112.47 -185.99c-28.65,-10.44 -50.66,-26.52 -65.9,-48.4 -15.38,-21.87 -23,-47.41 -23,-76.62 0,-40.64 15.38,-73.38 45.86,-98.35 30.62,-24.84 71.54,-37.4 122.77,-37.68l188.24 0zm-279.97 136.88c0,21.73 7.48,39.37 22.3,52.63 14.96,13.41 34.57,20.18 59.13,20.46l121.63 0 0 -148.16 -110.06 0c-28.37,0 -50.94,6.91 -67.74,20.88 -16.79,13.83 -25.26,31.89 -25.26,54.19z"/>
  <path id="11" class="fil1" d="M6053.01 1272.04l0 -447.04 174.41 0c59.55,0 105.27,10.44 137.16,31.18 31.75,20.75 47.7,51.23 47.7,91.44 0,20.75 -6.21,39.37 -18.63,56.03 -12.41,16.65 -30.76,29.35 -54.89,38.24 26.95,6.35 48.68,18.62 65.05,37.11 16.37,18.48 24.56,40.5 24.56,66.18 0,41.06 -15.1,72.39 -45.3,94.26 -30.06,21.73 -72.81,32.6 -127.85,32.6l-202.21 0zm76.48 -196.43l0 134.62 126.58 0c31.89,0 55.88,-5.92 71.68,-17.78 15.81,-11.85 23.71,-28.5 23.71,-49.95 0,-44.59 -32.74,-66.89 -98.35,-66.89l-123.62 0zm0 -60.96l98.78 0c71.69,0 107.53,-21.02 107.53,-62.93 0,-41.91 -33.87,-63.5 -101.74,-64.91l-104.57 0 0 127.84z"/>
  <polygon id="12" class="fil1" points="6669.1,1081.54 6613.36,1081.54 6613.36,1272.04 6536.46,1272.04 6536.46,825 6613.36,825 6613.36,1013.81 6663.32,1013.81 6813.88,825 6906.45,825 6729.5,1039.63 6921.41,1272.04 6824.18,1272.04 "/>
  <path id="13" class="fil1" d="M7133.36 1160l104.14 -335 81.84 0 -179.77 515.9c-27.94,74.37 -72.11,111.48 -132.79,111.48l-14.39 -1.27 -28.51 -5.36 0 -61.95 20.61 1.69c25.96,0 46.14,-5.22 60.53,-15.66 14.54,-10.44 26.39,-29.63 35.85,-57.43l16.93 -45.3 -159.6 -442.1 83.54 0 111.62 335z"/>
  <path id="14" class="fil2 str1" d="M1231.23 990.52c0,58.99 -9.88,110.49 -29.78,154.52 -19.75,44.03 -47.83,77.61 -84.24,100.75 -36.41,23.15 -78.88,34.72 -127.42,34.72 -47.42,0 -89.33,-11.72 -126.02,-35 -36.69,-23.28 -65.19,-56.44 -85.37,-99.62 -20.32,-43.18 -30.62,-93.14 -31.19,-150.01l0 -43.46c0,-57.85 10.02,-109.08 30.2,-153.53 20.04,-44.31 48.54,-78.31 85.38,-101.88 36.68,-23.57 78.88,-35.42 126.29,-35.42 48.12,0 90.73,11.71 127.42,35 36.83,23.28 65.2,57.01 84.95,101.31 19.9,44.31 29.78,95.82 29.78,154.52l0 38.1zm-78.88 -38.94c0,-71.27 -14.4,-126.02 -43.04,-164.12 -28.65,-38.24 -68.72,-57.29 -120.23,-57.29 -50.24,0 -89.75,19.05 -118.53,57.29 -28.79,38.1 -43.61,91.02 -44.45,158.75l0 44.31c0,69.15 14.53,123.47 43.6,162.99 29.07,39.51 69.14,59.26 120.09,59.26 51.36,0 91.01,-18.62 119.09,-56.02 28.09,-37.25 42.62,-90.73 43.47,-160.44l0 -44.73z"/>
  <path id="15" class="fil2 str1" d="M1517.55 1217.85c27.37,0 51.22,-8.18 71.54,-24.69 20.46,-16.51 31.75,-37.11 33.87,-61.95l72.39 0c-1.41,25.68 -10.16,50.1 -26.39,73.24 -16.37,23.14 -38.1,41.63 -65.19,55.45 -27.1,13.69 -55.88,20.61 -86.22,20.61 -60.82,0 -109.36,-20.32 -145.35,-60.96 -35.84,-40.64 -53.9,-96.38 -53.9,-166.94l0 -12.84c0,-43.46 8.04,-82.27 23.99,-116.13 15.94,-33.87 38.94,-60.26 68.86,-79.03 29.92,-18.77 65.19,-28.08 105.97,-28.08 50.24,0 91.87,14.96 125.17,45.02 33.16,30.05 50.8,69.14 53.06,116.98l-72.39 0c-2.12,-28.93 -13.13,-52.78 -32.88,-71.4 -19.62,-18.63 -44.03,-27.94 -72.96,-27.94 -38.8,0 -68.86,13.97 -90.31,41.91 -21.31,28.08 -32.03,68.43 -32.03,121.49l0 14.4c0,51.5 10.58,91.3 31.89,119.09 21.17,27.8 51.51,41.77 90.88,41.77z"/>
  <polygon id="16" class="fil2 str1" points="2114.02,886.81 1963.88,886.81 1963.88,1272.04 1887.4,1272.04 1887.4,886.81 1740.22,886.81 1740.22,825 2114.02,825 "/>
  <path id="17" class="fil2 str1" d="M2457.91 1272.04c-4.37,-8.75 -7.9,-24.41 -10.72,-46.99 -35.56,36.97 -78.04,55.46 -127.29,55.46 -44.16,0 -80.29,-12.42 -108.51,-37.4 -28.22,-24.97 -42.33,-56.58 -42.33,-94.82 0,-46.57 17.63,-82.84 53.05,-108.52 35.42,-25.82 85.24,-38.66 149.44,-38.66l74.37 0 0 -35.14c0,-26.67 -7.91,-47.98 -23.85,-63.92 -16.09,-15.81 -39.65,-23.71 -70.7,-23.71 -27.37,0 -50.23,6.91 -68.72,20.6 -18.49,13.83 -27.66,30.48 -27.66,49.95l-76.9 0c0,-22.29 7.9,-43.88 23.7,-64.77 15.95,-20.74 37.4,-37.25 64.63,-49.39 27.1,-12.13 56.87,-18.2 89.47,-18.2 51.5,0 91.86,12.84 121.07,38.67 29.21,25.68 44.45,61.24 45.44,106.39l0 205.89c0,41.06 5.36,73.66 15.8,97.93l0 6.63 -80.29 0zm-126.86 -56.73c23.99,0 46.71,-6.21 68.16,-18.76 21.59,-12.42 37.11,-28.79 46.71,-48.69l0 -92.57 -59.83 0c-93.7,0 -140.55,27.66 -140.55,82.98 0,24.13 7.9,43.04 23.85,56.58 16.08,13.69 36.54,20.46 61.66,20.46z"/>
  <path id="18" class="fil2 str1" d="M2649.26 1272.04l0 -447.04 174.41 0c59.55,0 105.27,10.44 137.16,31.18 31.75,20.75 47.7,51.23 47.7,91.44 0,20.75 -6.21,39.37 -18.63,56.03 -12.41,16.65 -30.76,29.35 -54.89,38.24 26.95,6.35 48.68,18.62 65.05,37.11 16.37,18.48 24.56,40.5 24.56,66.18 0,41.06 -15.1,72.39 -45.3,94.26 -30.06,21.73 -72.81,32.6 -127.85,32.6l-202.21 0zm76.48 -196.43l0 134.62 126.58 0c31.89,0 55.88,-5.92 71.68,-17.78 15.81,-11.85 23.71,-28.5 23.71,-49.95 0,-44.59 -32.74,-66.89 -98.35,-66.89l-123.62 0zm0 -60.96l98.78 0c71.69,0 107.53,-21.02 107.53,-62.93 0,-41.91 -33.87,-63.5 -101.74,-64.91l-104.57 0 0 127.84z"/>
  <polygon id="19" class="fil2 str1" points="3415.5,825 3491.98,825 3491.98,1272.04 3415.5,1272.04 3415.5,946.07 3209.19,1272.04 3132.71,1272.04 3132.71,825 3209.19,825 3209.19,1151.39 "/>
  <polygon id="20" class="fil2 str1" points="3947.2,886.81 3797.06,886.81 3797.06,1272.04 3720.58,1272.04 3720.58,886.81 3573.4,886.81 3573.4,825 3947.2,825 "/>
  <path id="21" class="fil2 str1" d="M4105.1 979.09l116.14 0c50.8,0.57 90.87,13.83 120.37,39.65 29.49,25.97 44.16,60.96 44.16,105.41 0,44.6 -15.09,80.44 -45.43,107.39 -30.34,26.95 -71.12,40.5 -122.35,40.5l-189.37 0 0 -447.04 76.48 0 0 154.09zm0 62.66l0 167.64 113.74 0c28.65,0 50.8,-7.34 66.46,-22.02 15.81,-14.67 23.71,-34.85 23.71,-60.39 0,-24.7 -7.76,-44.88 -23,-60.68 -15.38,-15.81 -36.69,-23.99 -64.35,-24.55l-116.56 0z"/>
  <path id="22" class="fil2 str1" d="M4936.95 946.64c0,-20.89 -8.04,-37.54 -23.98,-49.82 -15.95,-12.27 -37.96,-18.48 -65.76,-18.48 -26.95,0 -49.53,7.05 -67.59,21.17 -18.07,14.11 -27.1,30.62 -27.1,49.67l-76.06 0c0,-38.81 16.23,-70.7 48.83,-95.39 32.45,-24.84 73.09,-37.26 121.92,-37.26 52.35,0 93.13,11.29 122.34,33.73 29.21,22.58 43.89,54.61 43.89,96.24 0,20.17 -6.07,38.66 -18.21,55.59 -12.13,16.8 -29.35,30.2 -51.64,40.08 52.07,17.64 78.03,52.35 78.03,104.14 0,40.92 -15.8,73.52 -47.55,97.37 -31.61,23.99 -73.95,35.98 -126.86,35.98 -51.51,0 -93.98,-12.56 -127.57,-37.82 -33.44,-25.26 -50.23,-59.41 -50.23,-102.3l76.06 0c0,21.73 9.73,40.35 29.21,55.88 19.47,15.52 43.6,23.28 72.53,23.28 29.21,0 52.77,-6.77 70.69,-20.18 17.93,-13.4 26.96,-30.76 26.96,-52.21 0,-24.84 -7.62,-42.76 -22.58,-53.62 -15.1,-10.87 -38.38,-16.23 -70.13,-16.23l-76.49 0 0 -65.19 83.12 0c52.07,-1.42 78.17,-22.86 78.17,-64.63z"/>
  <path id="23" class="fil2 str1" d="M5396.98 1272.04c-4.37,-8.75 -7.9,-24.41 -10.72,-46.99 -35.56,36.97 -78.04,55.46 -127.29,55.46 -44.16,0 -80.29,-12.42 -108.51,-37.4 -28.22,-24.97 -42.33,-56.58 -42.33,-94.82 0,-46.57 17.63,-82.84 53.05,-108.52 35.42,-25.82 85.24,-38.66 149.44,-38.66l74.37 0 0 -35.14c0,-26.67 -7.91,-47.98 -23.85,-63.92 -16.09,-15.81 -39.65,-23.71 -70.7,-23.71 -27.37,0 -50.23,6.91 -68.72,20.6 -18.49,13.83 -27.66,30.48 -27.66,49.95l-76.9 0c0,-22.29 7.9,-43.88 23.7,-64.77 15.95,-20.74 37.4,-37.25 64.63,-49.39 27.1,-12.13 56.87,-18.2 89.47,-18.2 51.5,0 91.86,12.84 121.07,38.67 29.21,25.68 44.45,61.24 45.44,106.39l0 205.89c0,41.06 5.36,73.66 15.8,97.93l0 6.63 -80.29 0zm-126.86 -56.73c23.99,0 46.71,-6.21 68.16,-18.76 21.59,-12.42 37.11,-28.79 46.71,-48.69l0 -92.57 -59.83 0c-93.7,0 -140.55,27.66 -140.55,82.98 0,24.13 7.9,43.04 23.85,56.58 16.08,13.69 36.54,20.46 61.66,20.46z"/>
  <path id="24" class="fil2 str1" d="M5923.47 825l0 447.04 -76.91 0 0 -174.41 -115.42 0 -105.42 174.41 -82.69 0 112.47 -185.99c-28.65,-10.44 -50.66,-26.52 -65.9,-48.4 -15.38,-21.87 -23,-47.41 -23,-76.62 0,-40.64 15.38,-73.38 45.86,-98.35 30.62,-24.84 71.54,-37.4 122.77,-37.68l188.24 0zm-279.97 136.88c0,21.73 7.48,39.37 22.3,52.63 14.96,13.41 34.57,20.18 59.13,20.46l121.63 0 0 -148.16 -110.06 0c-28.37,0 -50.94,6.91 -67.74,20.88 -16.79,13.83 -25.26,31.89 -25.26,54.19z"/>
  <path id="25" class="fil2 str1" d="M6053.01 1272.04l0 -447.04 174.41 0c59.55,0 105.27,10.44 137.16,31.18 31.75,20.75 47.7,51.23 47.7,91.44 0,20.75 -6.21,39.37 -18.63,56.03 -12.41,16.65 -30.76,29.35 -54.89,38.24 26.95,6.35 48.68,18.62 65.05,37.11 16.37,18.48 24.56,40.5 24.56,66.18 0,41.06 -15.1,72.39 -45.3,94.26 -30.06,21.73 -72.81,32.6 -127.85,32.6l-202.21 0zm76.48 -196.43l0 134.62 126.58 0c31.89,0 55.88,-5.92 71.68,-17.78 15.81,-11.85 23.71,-28.5 23.71,-49.95 0,-44.59 -32.74,-66.89 -98.35,-66.89l-123.62 0zm0 -60.96l98.78 0c71.69,0 107.53,-21.02 107.53,-62.93 0,-41.91 -33.87,-63.5 -101.74,-64.91l-104.57 0 0 127.84z"/>
  <polygon id="26" class="fil2 str1" points="6669.1,1081.54 6613.36,1081.54 6613.36,1272.04 6536.46,1272.04 6536.46,825 6613.36,825 6613.36,1013.81 6663.32,1013.81 6813.88,825 6906.45,825 6729.5,1039.63 6921.41,1272.04 6824.18,1272.04 "/>
  <path id="27" class="fil2 str1" d="M7133.36 1160l104.14 -335 81.84 0 -179.77 515.9c-27.94,74.37 -72.11,111.48 -132.79,111.48l-14.39 -1.27 -28.51 -5.36 0 -61.95 20.61 1.69c25.96,0 46.14,-5.22 60.53,-15.66 14.54,-10.44 26.39,-29.63 35.85,-57.43l16.93 -45.3 -159.6 -442.1 83.54 0 111.62 335z"/>
 </g>
</svg>
