<?xml version="1.0" encoding="UTF-8"?> <svg xmlns="http://www.w3.org/2000/svg" width="44" height="48" viewBox="0 0 44 48" fill="none"><path d="M35.5351 22.6783C35.7254 23.1066 35.6513 23.5708 35.3359 23.9194L27.8539 32.2007C27.6302 32.4478 27.3258 32.5842 26.9974 32.5842C26.6684 32.5842 26.3646 32.4484 26.1409 32.2018L18.6534 23.9249C18.3381 23.5763 18.2633 23.1126 18.4537 22.6838C18.6441 22.255 19.0385 21.9986 19.5093 21.9986L23.159 21.9975C23.5087 21.9975 23.7918 21.7138 23.7918 21.3641L23.7907 18.5246C24.7956 18.8683 25.8725 19.0548 26.9925 19.0548C28.1136 19.0548 29.1915 18.8666 30.197 18.5219L30.1981 21.3625C30.1981 21.7122 30.4817 21.9958 30.8314 21.9953L34.4783 21.9942C34.9492 21.9942 35.3436 22.2501 35.534 22.6789L35.5351 22.6783ZM29.0786 35.349C29.4556 36.1171 29.5167 37.0352 29.1697 37.8874C29.0912 38.0799 28.9957 38.26 28.8866 38.4269L38.0876 34.5465C38.062 34.355 38.0118 34.1684 37.9354 33.9879C37.4668 32.8777 36.1826 32.354 35.0724 32.8215L29.0786 35.349ZM43.7721 35.894C43.5463 35.3604 43.1229 34.9436 42.5801 34.7233C42.0373 34.5023 41.4443 34.505 40.9108 34.7309L39.0167 35.5296C38.9965 35.5394 38.9752 35.5481 38.9534 35.5563L29.0241 39.7433C27.742 40.2834 27.2385 40.3876 26.3722 40.0373L25.1747 39.5562C25.1747 39.5562 25.1715 39.5551 25.1698 39.554C25.1589 39.5496 25.1491 39.5442 25.1387 39.5393L17.6092 36.5033C17.2846 36.3724 17.1281 36.0036 17.259 35.679C17.3899 35.355 17.7587 35.1979 18.0833 35.3283L25.6706 38.3876C25.6706 38.3876 25.6739 38.3893 25.675 38.3898C26.6106 38.7477 27.6258 38.3216 27.9979 37.4089C28.3803 36.4706 27.9259 35.3954 26.9854 35.0118L16.9371 30.923C16.9262 30.9187 16.9153 30.9138 16.9044 30.9088C16.355 30.6486 15.5869 30.629 15.0354 30.8614L7.2238 34.1564L10.5227 41.9778L11.6912 41.4841C12.659 41.0755 13.2329 41.2266 14.0632 41.525C14.0714 41.5278 14.0796 41.531 14.0878 41.5343L24.1066 45.6111C24.8452 45.9112 25.6625 45.9046 26.4066 45.592L42.6096 38.7597C43.7176 38.2911 44.2397 37.0052 43.7732 35.8934L43.7721 35.894ZM10.3476 44.8223C10.4354 45.0323 10.4294 45.2903 10.3306 45.4955C10.2815 45.5986 10.1872 45.7311 10.0202 45.7791L4.17152 47.4479C3.87147 47.5341 3.53269 47.5118 3.32702 47.3923C3.20155 47.3192 3.16718 47.2352 3.15136 47.1708L0.0979829 34.5012C0.0041503 34.1139 0.0434291 33.6 0.463494 33.4243L4.08205 31.8963C4.17424 31.8575 4.27135 31.8379 4.369 31.8379C4.46556 31.8379 4.56212 31.857 4.65486 31.8946C4.84089 31.9705 4.98546 32.1129 5.06238 32.2962L10.3459 44.8223H10.3476ZM4.35318 35.8847L3.59979 34.0959C3.46395 33.7735 3.09299 33.6224 2.77057 33.7582C2.44816 33.894 2.29705 34.265 2.43289 34.5874L3.18628 36.3762C3.28829 36.6185 3.52287 36.7641 3.77055 36.7641C3.85238 36.7641 3.93584 36.7483 4.01604 36.7145C4.33845 36.5786 4.48957 36.2077 4.35373 35.8853L4.35318 35.8847ZM18.3468 9.14624C18.3451 4.37987 22.2217 0.501637 26.9876 0.500001C31.7539 0.498364 35.6322 4.37496 35.6338 9.14078C35.6354 13.9071 31.7588 17.7854 26.993 17.787C22.2272 17.7887 18.3484 13.9121 18.3468 9.14624ZM23.6892 7.2003C23.6892 8.64543 24.8027 9.77742 26.2227 9.77742H27.7579C28.4562 9.77688 29.0246 10.3448 29.0246 11.0431C29.0246 11.7785 28.4687 12.3545 27.7584 12.3545L24.3237 12.3556C23.974 12.3556 23.6909 12.6393 23.6909 12.989C23.6909 13.3387 23.9746 13.6224 24.3242 13.6218H26.358V15.1592C26.358 15.5088 26.6417 15.7925 26.9914 15.792C27.3411 15.7914 27.6242 15.5083 27.6242 15.1586V13.6202H27.7584C29.1784 13.6202 30.2908 12.4871 30.2903 11.042C30.2903 9.6454 29.1534 8.50959 27.7568 8.51014H26.2216C25.5113 8.51068 24.9549 7.93514 24.9549 7.19976C24.9549 6.50147 25.5228 5.93302 26.2211 5.93302L29.6558 5.93193C30.0055 5.93193 30.2886 5.64825 30.2886 5.29856C30.2886 4.94887 30.0049 4.66519 29.6552 4.66573H27.6215V3.1284C27.6215 2.77871 27.3378 2.49503 26.9881 2.49558C26.6384 2.49612 26.3553 2.77926 26.3553 3.12895V4.66682H26.2216C24.825 4.66682 23.6887 5.80372 23.6892 7.2003Z" fill="#235387"></path></svg> 